<?xml version="1.0" encoding="iso-8859-1"?>
<!-- Generator: Adobe Illustrator 19.0.0, SVG Export Plug-In . SVG Version: 6.00 Build 0)  -->
<svg version="1.1" id="Capa_1" xmlns="http://www.w3.org/2000/svg" xmlns:xlink="http://www.w3.org/1999/xlink" x="0px" y="0px"
	 viewBox="0 0 512.006 512.006" style="enable-background:new 0 0 512.006 512.006;" xml:space="preserve">
<circle style="fill:#FE585D;" cx="256.003" cy="256.006" r="256"/>
<g style="opacity:0.35;">
	<path style="fill:#FFFFFF;" d="M74.987,437.022c-99.976-99.976-99.976-262.064,0-362.04s262.064-99.976,362.04,0L74.987,437.022z"
		/>
</g>
<path style="fill:#FFFFFF;" d="M371.259,130.486c9.136,12.704,13.704,27.896,13.704,45.592c0,18.24-4.608,32.896-13.832,43.968
	c-5.16,6.216-12.744,11.888-22.776,17.024c15.24,5.544,26.744,14.32,34.504,26.344c7.752,12.024,11.632,26.616,11.632,43.768
	c0,17.696-4.432,33.568-13.288,47.616c-5.648,9.312-12.696,17.152-21.16,23.496c-9.536,7.296-20.784,12.296-33.744,15
	s-27.024,4.048-42.2,4.048H149.523V98.67h144.336C330.267,99.214,356.075,109.822,371.259,130.486z M209.091,150.542v65.856h72.592
	c12.96,0,23.496-2.464,31.576-7.392c8.088-4.928,12.136-13.68,12.136-26.24c0-13.912-5.352-23.104-16.048-27.56
	c-9.224-3.104-20.992-4.664-35.296-4.664H209.091z M209.091,265.838v79.632h72.512c12.944,0,23.032-1.752,30.248-5.272
	c13.08-6.488,19.632-18.912,19.632-37.28c0-15.536-6.344-26.208-19.032-32.016c-7.08-3.24-17.024-4.928-29.84-5.064H209.091z"/>
<g>
</g>
<g>
</g>
<g>
</g>
<g>
</g>
<g>
</g>
<g>
</g>
<g>
</g>
<g>
</g>
<g>
</g>
<g>
</g>
<g>
</g>
<g>
</g>
<g>
</g>
<g>
</g>
<g>
</g>
</svg>
